<?xml version="1.0" encoding="UTF-8" standalone="no"?>
<!DOCTYPE svg PUBLIC "-//W3C//DTD SVG 1.1//EN" "http://www.w3.org/Graphics/SVG/1.1/DTD/svg11.dtd">
<svg xmlns="http://www.w3.org/2000/svg" version="1.1" viewBox="0 0 512 512">
<path fill="#2c96ff" d="M 158.31,0.00 Q 161.06,0.00 163.81,0.00 Q 168.08,0.29 178.44,0.31 Q 210.81,0.38 243.19,0.44 Q 243.76,0.44 243.81,0.00 Q 302.44,0.00 361.06,0.00 Q 382.68,0.60 404.24,2.32 Q 413.73,3.08 423.05,5.01 Q 460.84,12.83 484.84,41.40 Q 491.26,49.05 496.01,57.91 Q 506.37,77.23 508.75,98.75 Q 511.48,123.39 512.00,153.31 Q 512.00,256.44 512.00,359.56 Q 511.47,383.32 509.38,406.99 Q 508.56,416.25 506.52,425.30 Q 499.50,456.48 477.55,478.44 Q 470.39,485.60 462.12,491.07 Q 444.26,502.89 422.79,506.97 Q 410.80,509.24 400.25,510.00 Q 376.58,511.70 349.94,512.00 Q 251.19,512.00 152.44,512.00 Q 130.27,511.60 108.20,509.69 Q 95.76,508.61 88.39,507.04 Q 75.67,504.32 64.56,499.19 Q 28.93,482.73 12.85,447.69 Q 8.79,438.85 6.28,428.83 Q 3.23,416.65 2.25,403.50 Q 0.39,378.50 0.00,358.19 Q 0.00,255.44 0.00,152.69 Q 0.48,131.35 2.06,110.06 Q 3.05,96.78 6.23,83.86 Q 13.65,53.79 35.00,33.00 Q 54.75,13.76 81.51,6.78 Q 93.70,3.60 106.26,2.57 Q 132.24,0.42 158.31,0.00 ZM 153.78,193.21 Q 159.74,198.42 167.75,198.43 Q 298.25,198.50 428.75,198.50 Q 442.94,198.50 449.49,188.19 Q 452.13,184.03 452.74,179.26 Q 453.39,174.15 451.69,169.56 Q 447.95,159.52 438.92,156.40 Q 434.87,155.00 421.94,155.00 Q 296.78,155.00 171.62,155.00 Q 164.39,155.00 161.00,156.06 Q 155.48,157.77 151.69,161.89 Q 146.41,167.62 145.89,175.71 Q 145.25,185.76 153.78,193.21 ZM 118.00,176.92 A 21.70 21.70 0.0 0 0 96.30,155.22 A 21.70 21.70 0.0 0 0 74.60,176.92 A 21.70 21.70 0.0 0 0 96.30,198.62 A 21.70 21.70 0.0 0 0 118.00,176.92 ZM 404.66,257.63 A 21.35 21.35 0.0 0 0 383.31,236.28 L 167.37,236.28 A 21.35 21.35 0.0 0 0 146.02,257.63 L 146.02,258.39 A 21.35 21.35 0.0 0 0 167.37,279.74 L 383.31,279.74 A 21.35 21.35 0.0 0 0 404.66,258.39 L 404.66,257.63 ZM 118.00,258.09 A 21.70 21.70 0.0 0 0 96.30,236.39 A 21.70 21.70 0.0 0 0 74.60,258.09 A 21.70 21.70 0.0 0 0 96.30,279.79 A 21.70 21.70 0.0 0 0 118.00,258.09 ZM 356.40,339.65 A 21.36 21.36 0.0 0 0 335.04,318.29 L 167.42,318.29 A 21.36 21.36 0.0 0 0 146.06,339.65 L 146.06,340.59 A 21.36 21.36 0.0 0 0 167.42,361.95 L 335.04,361.95 A 21.36 21.36 0.0 0 0 356.40,340.59 L 356.40,339.65 ZM 118.01,340.12 A 21.70 21.70 0.0 0 0 96.31,318.42 A 21.70 21.70 0.0 0 0 74.61,340.12 A 21.70 21.70 0.0 0 0 96.31,361.82 A 21.70 21.70 0.0 0 0 118.01,340.12 Z"/>
<path fill="#2c96ff" d="M 163.81,0.00 Q 203.81,0.00 243.81,0.00 Q 243.76,0.44 243.19,0.44 Q 210.81,0.38 178.44,0.31 Q 168.08,0.29 163.81,0.00 Z"/>
<path fill="#ffffff" d="M 153.78,193.21 Q 145.25,185.76 145.89,175.71 Q 146.41,167.62 151.69,161.89 Q 155.48,157.77 161.00,156.06 Q 164.39,155.00 171.62,155.00 Q 296.78,155.00 421.94,155.00 Q 434.87,155.00 438.92,156.40 Q 447.95,159.52 451.69,169.56 Q 453.39,174.15 452.74,179.26 Q 452.13,184.03 449.49,188.19 Q 442.94,198.50 428.75,198.50 Q 298.25,198.50 167.75,198.43 Q 159.74,198.42 153.78,193.21 Z"/>
<circle fill="#ffffff" cx="96.30" cy="176.92" r="21.70"/>
<rect fill="#ffffff" x="146.02" y="236.28" width="258.64" height="43.46" rx="21.35"/>
<circle fill="#ffffff" cx="96.30" cy="258.09" r="21.70"/>
<rect fill="#ffffff" x="146.06" y="318.29" width="210.34" height="43.66" rx="21.36"/>
<circle fill="#ffffff" cx="96.31" cy="340.12" r="21.70"/>
</svg>
